<svg width="424" height="424" viewBox="0 0 424 424" fill="none" xmlns="http://www.w3.org/2000/svg">
<path d="M415.843 328.848C416.588 329.211 417.486 328.901 417.849 328.157L423.761 316.02C424.123 315.275 423.814 314.377 423.069 314.014C422.324 313.652 421.426 313.961 421.063 314.706L415.809 325.494L405.02 320.239C404.276 319.877 403.378 320.186 403.015 320.931C402.652 321.676 402.962 322.574 403.707 322.936L415.843 328.848ZM67.2261 124.396C72.1635 98.4976 90.0318 80.5865 115.748 72.6237C141.516 64.6451 175.182 66.6693 211.408 80.8715C283.826 109.262 366.19 186.232 415.082 327.989L417.918 327.011C368.802 184.604 285.902 106.854 212.503 78.0785C175.821 63.6979 141.44 61.528 114.861 69.758C88.2304 78.0038 69.4514 96.704 64.2792 123.834L67.2261 124.396Z" fill="black"/>
<path d="M12.6922 163.581C11.5249 163.723 10.4739 163.663 9.5393 163.401C8.62325 163.136 7.81884 162.708 7.12608 162.115C6.45184 161.52 5.91117 160.787 5.50405 159.915C5.09468 159.025 4.82225 158.024 4.68678 156.912C4.5513 155.8 4.58461 154.762 4.78671 153.797C5.00735 152.83 5.37349 151.977 5.88515 151.237C6.39456 150.48 7.05286 149.863 7.86006 149.389C8.68353 148.894 9.62336 148.582 10.6796 148.453C11.3281 148.374 11.9834 148.351 12.6455 148.383C13.3076 148.415 13.9498 148.515 14.5721 148.684L14.2559 150.951C13.8442 150.813 13.3722 150.72 12.8398 150.672C12.326 150.622 11.7818 150.632 11.2074 150.702C9.76212 150.878 8.70567 151.467 8.03807 152.47C7.38899 153.471 7.17058 154.842 7.38283 156.584C7.47767 157.362 7.64798 158.065 7.89378 158.693C8.1581 159.319 8.50379 159.841 8.93083 160.259C9.3764 160.675 9.91147 160.977 10.536 161.164C11.1583 161.332 11.8957 161.365 12.748 161.261C13.4336 161.177 14.0465 161.037 14.5865 160.839C15.1266 160.642 15.5451 160.45 15.8421 160.263L16.4676 162.387C16.3306 162.498 16.1288 162.617 15.8622 162.743C15.5933 162.851 15.2862 162.954 14.9409 163.053C14.5978 163.17 14.2248 163.272 13.8216 163.358C13.4393 163.461 13.0628 163.535 12.6922 163.581ZM22.2702 162.357C20.6721 162.514 19.5 162.309 18.7539 161.742C18.0078 161.175 17.5512 160.205 17.3842 158.834L15.2707 141.491L17.8014 140.731L19.9182 158.102C19.9702 158.529 20.0501 158.876 20.1581 159.145C20.2661 159.414 20.4136 159.622 20.6007 159.768C20.7878 159.914 21.026 160.017 21.3152 160.076C21.6022 160.116 21.9529 160.139 22.3673 160.145L22.2702 162.357ZM26.6956 161.536L24.1107 161.851L22.3495 147.398L24.9343 147.083L26.6956 161.536ZM23.3096 144.629C22.8464 144.686 22.4299 144.586 22.0603 144.33C21.7069 144.053 21.4986 143.656 21.4354 143.137C21.3721 142.618 21.48 142.191 21.7588 141.856C22.054 141.501 22.4332 141.295 22.8964 141.238C23.3597 141.182 23.768 141.292 24.1214 141.569C24.491 141.824 24.7075 142.212 24.7707 142.73C24.8339 143.249 24.7179 143.687 24.4228 144.042C24.1439 144.377 23.7729 144.573 23.3096 144.629ZM36.0732 160.731C34.9058 160.874 33.8548 160.814 32.9202 160.552C32.0042 160.287 31.1998 159.859 30.507 159.266C29.8328 158.671 29.2921 157.938 28.885 157.066C28.4756 156.176 28.2032 155.175 28.0677 154.063C27.9322 152.951 27.9656 151.913 28.1677 150.948C28.3883 149.981 28.7544 149.128 29.2661 148.388C29.7755 147.63 30.4338 147.014 31.241 146.54C32.0645 146.045 33.0043 145.733 34.0605 145.604C34.709 145.525 35.3643 145.501 36.0264 145.534C36.6885 145.566 37.3307 145.666 37.953 145.835L37.6369 148.102C37.2252 147.964 36.7532 147.871 36.2208 147.823C35.7069 147.773 35.1628 147.783 34.5884 147.853C33.1431 148.029 32.0866 148.618 31.419 149.621C30.7699 150.621 30.5515 151.993 30.7638 153.734C30.8586 154.513 31.0289 155.216 31.2747 155.844C31.5391 156.47 31.8847 156.992 32.3118 157.41C32.7574 157.826 33.2924 158.127 33.917 158.315C34.5393 158.483 35.2766 158.516 36.129 158.412C36.8146 158.328 37.4274 158.188 37.9675 157.99C38.5076 157.793 38.9261 157.601 39.223 157.414L39.8485 159.538C39.7116 159.649 39.5098 159.767 39.2431 159.894C38.9742 160.002 38.6671 160.105 38.3218 160.204C37.9788 160.321 37.6057 160.423 37.2026 160.509C36.8202 160.612 36.4438 160.686 36.0732 160.731ZM45.538 151.172C46.1458 151.531 46.7939 151.988 47.4821 152.543C48.1889 153.097 48.8839 153.708 49.5672 154.377C50.2667 155.025 50.9314 155.696 51.5614 156.39C52.1891 157.066 52.7277 157.705 53.1773 158.309L50.1477 158.678C49.6796 158.077 49.1455 157.474 48.5453 156.87C47.9615 156.246 47.3544 155.662 46.724 155.118C46.0913 154.556 45.4562 154.05 44.8185 153.601C44.1809 153.152 43.5812 152.784 43.0195 152.495L43.8662 159.443L41.2813 159.758L38.7072 138.635L41.2379 137.875L42.8433 151.049C43.2339 150.551 43.6651 150 44.1369 149.397C44.6088 148.794 45.0703 148.183 45.5214 147.564C45.9725 146.945 46.3992 146.357 46.8014 145.8C47.2014 145.225 47.5445 144.722 47.8306 144.293L50.8602 143.923C50.4905 144.439 50.0893 145.005 49.6568 145.621C49.2242 146.238 48.7743 146.867 48.3069 147.507C47.8373 148.128 47.3595 148.76 46.8736 149.402C46.404 150.023 45.9588 150.613 45.538 151.172ZM59.4563 157.544L56.8822 136.42L59.4128 135.66L60.3138 143.053C60.773 142.809 61.2656 142.608 61.7917 142.45C62.334 142.271 62.8739 142.149 63.4112 142.084C64.56 141.944 65.5346 141.994 66.335 142.235C67.1331 142.458 67.7906 142.838 68.3076 143.377C68.8408 143.895 69.2498 144.55 69.5344 145.343C69.8191 146.136 70.0212 147.023 70.1409 148.005L71.1299 156.121L68.545 156.436L67.6238 148.876C67.5154 147.987 67.3579 147.235 67.1515 146.621C66.9635 146.004 66.7069 145.518 66.3815 145.163C66.0561 144.808 65.6517 144.575 65.1681 144.465C64.6823 144.336 64.0966 144.313 63.411 144.397C63.1331 144.431 62.8481 144.484 62.5561 144.557C62.2642 144.63 61.9826 144.712 61.7115 144.801C61.4566 144.87 61.2213 144.946 61.0057 145.028C60.8087 145.109 60.6661 145.173 60.578 145.221L62.0411 157.229L59.4563 157.544ZM72.2619 148.677C72.1061 147.399 72.1559 146.265 72.4114 145.274C72.6645 144.266 73.0585 143.409 73.5932 142.705C74.1279 142 74.7744 141.442 75.5328 141.03C76.2912 140.618 77.0873 140.361 77.9211 140.259C79.8668 140.022 81.4329 140.452 82.6196 141.548C83.804 142.626 84.5475 144.407 84.8501 146.89C84.8636 147.001 84.8817 147.149 84.9043 147.334C84.9246 147.501 84.9345 147.66 84.9341 147.81L75.0392 149.016C75.3333 150.503 75.9076 151.59 76.7622 152.276C77.6167 152.961 78.85 153.206 80.4621 153.009C81.3701 152.899 82.1207 152.732 82.7142 152.509C83.3238 152.266 83.7772 152.051 84.0741 151.864L84.6996 153.988C84.4049 154.193 83.8705 154.437 83.0963 154.719C82.3406 154.999 81.4625 155.2 80.4619 155.322C79.2019 155.476 78.0861 155.424 77.1144 155.166C76.1591 154.888 75.3443 154.451 74.67 153.856C73.9958 153.261 73.4551 152.528 73.048 151.656C72.6572 150.764 72.3951 149.771 72.2619 148.677ZM82.0118 146.051C81.888 144.881 81.4753 143.963 80.7735 143.296C80.088 142.609 79.2171 142.33 78.1609 142.458C77.568 142.53 77.0546 142.715 76.6207 143.013C76.2031 143.289 75.8593 143.632 75.5895 144.041C75.3196 144.45 75.1214 144.907 74.9948 145.411C74.8868 145.913 74.8354 146.418 74.8408 146.925L82.0118 146.051ZM91.6193 138.646C91.8416 138.619 92.094 138.607 92.3765 138.61C92.6752 138.593 92.967 138.595 93.2517 138.617C93.5341 138.62 93.7899 138.636 94.0191 138.664C94.2645 138.672 94.445 138.687 94.5607 138.711L94.3903 141.016C94.1775 140.967 93.8245 140.926 93.3315 140.892C92.8547 140.837 92.2457 140.855 91.5045 140.945C91.0227 141.004 90.5477 141.118 90.0795 141.288C89.6276 141.437 89.3297 141.539 89.186 141.594L90.6661 153.74L88.0812 154.055L86.3945 140.214C86.9789 139.917 87.7138 139.621 88.5991 139.325C89.4823 139.01 90.489 138.784 91.6193 138.646ZM95.7297 145.818C95.5739 144.539 95.6237 143.405 95.8792 142.415C96.1323 141.406 96.5263 140.549 97.061 139.845C97.5957 139.14 98.2422 138.582 99.0006 138.17C99.759 137.758 100.555 137.501 101.389 137.399C103.335 137.162 104.901 137.592 106.087 138.688C107.272 139.766 108.015 141.547 108.318 144.03C108.331 144.141 108.35 144.289 108.372 144.475C108.392 144.641 108.402 144.8 108.402 144.95L98.5071 146.156C98.8011 147.644 99.3754 148.73 100.23 149.416C101.085 150.101 102.318 150.346 103.93 150.15C104.838 150.039 105.589 149.872 106.182 149.65C106.792 149.406 107.245 149.191 107.542 149.004L108.167 151.128C107.873 151.333 107.338 151.577 106.564 151.86C105.808 152.14 104.93 152.341 103.93 152.463C102.67 152.616 101.554 152.564 100.582 152.306C99.6269 152.028 98.8121 151.591 98.1378 150.996C97.4636 150.402 96.9229 149.668 96.5158 148.797C96.125 147.904 95.8629 146.911 95.7297 145.818ZM105.48 143.191C105.356 142.021 104.943 141.103 104.241 140.437C103.556 139.749 102.685 139.47 101.629 139.598C101.036 139.671 100.522 139.856 100.088 140.153C99.6709 140.429 99.3271 140.772 99.0573 141.181C98.7875 141.59 98.5892 142.047 98.4626 142.551C98.3546 143.053 98.3032 143.558 98.3086 144.065L105.48 143.191ZM117.249 135.833L122.725 135.166L122.989 137.334L117.513 138.001L118.326 144.672C118.414 145.395 118.543 145.99 118.713 146.458C118.881 146.908 119.093 147.258 119.349 147.509C119.603 147.741 119.903 147.893 120.25 147.963C120.597 148.034 120.993 148.042 121.438 147.988C122.216 147.893 122.827 147.734 123.27 147.511C123.729 147.267 124.047 147.096 124.223 147L124.984 149.079C124.741 149.24 124.306 149.453 123.68 149.717C123.056 150 122.327 150.193 121.493 150.294C120.511 150.414 119.681 150.393 119.004 150.231C118.342 150.048 117.786 149.73 117.336 149.278C116.886 148.825 116.533 148.247 116.279 147.545C116.04 146.822 115.862 145.978 115.745 145.015L114.173 132.118L116.704 131.358L117.249 135.833ZM137.882 140.653C138.022 141.802 137.982 142.86 137.761 143.827C137.541 144.794 137.165 145.648 136.635 146.39C136.124 147.129 135.473 147.735 134.685 148.207C133.894 148.661 133.007 148.948 132.025 149.067C131.043 149.187 130.114 149.121 129.237 148.871C128.358 148.602 127.572 148.171 126.879 147.579C126.205 146.984 125.645 146.244 125.198 145.358C124.752 144.472 124.459 143.455 124.319 142.306C124.181 141.175 124.222 140.127 124.443 139.16C124.661 138.174 125.026 137.311 125.538 136.572C126.068 135.831 126.729 135.233 127.52 134.779C128.308 134.307 129.194 134.011 130.176 133.891C131.158 133.772 132.089 133.846 132.968 134.115C133.844 134.366 134.62 134.788 135.294 135.383C135.987 135.976 136.557 136.724 137.006 137.629C137.453 138.515 137.745 139.523 137.882 140.653ZM135.186 140.981C134.988 139.351 134.46 138.108 133.604 137.253C132.764 136.378 131.714 136.017 130.454 136.171C129.194 136.324 128.252 136.928 127.628 137.982C127.02 139.015 126.816 140.347 127.015 141.977C127.213 143.608 127.733 144.861 128.573 145.736C129.429 146.591 130.487 146.942 131.747 146.788C133.007 146.634 133.941 146.041 134.549 145.008C135.173 143.954 135.385 142.612 135.186 140.981ZM29.6955 184.465C30.7517 184.337 31.513 184.103 31.9795 183.764C32.4644 183.423 32.6696 182.946 32.5951 182.335C32.5184 181.705 32.2072 181.235 31.6618 180.925C31.1163 180.616 30.2409 180.299 29.0357 179.976C28.4527 179.821 27.8882 179.665 27.3423 179.505C26.8126 179.326 26.3433 179.101 25.9344 178.831C25.5254 178.561 25.1826 178.217 24.9061 177.8C24.6295 177.382 24.4517 176.849 24.3727 176.2C24.2169 174.922 24.5663 173.854 25.421 172.998C26.2735 172.123 27.515 171.586 29.1456 171.388C29.5532 171.338 29.9643 171.316 30.3787 171.322C30.7909 171.309 31.1775 171.319 31.5386 171.35C31.8974 171.363 32.2111 171.39 32.4795 171.433C32.7665 171.473 32.9875 171.512 33.1425 171.549L32.941 173.831C32.645 173.716 32.1914 173.621 31.5804 173.545C30.9672 173.451 30.2436 173.454 29.4098 173.556C28.6871 173.644 28.0752 173.869 27.574 174.231C27.0705 174.574 26.856 175.052 26.9305 175.663C26.9689 175.978 27.0583 176.249 27.1989 176.477C27.3579 176.702 27.5703 176.901 27.836 177.076C28.118 177.23 28.4545 177.367 28.8454 177.489C29.2363 177.61 29.7025 177.732 30.2439 177.854C30.9611 178.03 31.6042 178.215 32.1732 178.409C32.7399 178.584 33.2288 178.816 33.6401 179.105C34.0698 179.391 34.416 179.762 34.6785 180.219C34.9388 180.658 35.1107 181.22 35.1942 181.905C35.3568 183.239 34.9796 184.31 34.0625 185.118C33.164 185.923 31.7975 186.437 29.9631 186.661C28.6846 186.817 27.6704 186.828 26.9207 186.693C26.1732 186.577 25.6629 186.48 25.39 186.4L25.5915 184.119C25.9015 184.194 26.3944 184.303 27.07 184.447C27.7456 184.59 28.6208 184.596 29.6955 184.465ZM35.8907 178.295C35.7349 177.016 35.7847 175.882 36.0401 174.891C36.2933 173.883 36.6873 173.026 37.222 172.322C37.7567 171.617 38.4032 171.059 39.1616 170.647C39.92 170.235 40.7161 169.978 41.5499 169.876C43.4955 169.639 45.0617 170.069 46.2484 171.165C47.4328 172.243 48.1763 174.024 48.4789 176.507C48.4924 176.618 48.5105 176.766 48.5331 176.951C48.5534 177.118 48.5633 177.277 48.5628 177.427L38.668 178.633C38.9621 180.12 39.5364 181.207 40.391 181.893C41.2455 182.578 42.4788 182.823 44.0909 182.626C44.9989 182.516 45.7495 182.349 46.3429 182.126C46.9526 181.883 47.4059 181.668 47.7029 181.481L48.3284 183.605C48.0337 183.81 47.4993 184.054 46.7251 184.336C45.9694 184.616 45.0913 184.817 44.0907 184.939C42.8307 185.093 41.7149 185.041 40.7432 184.783C39.7878 184.505 38.973 184.068 38.2988 183.473C37.6246 182.878 37.0839 182.145 36.6768 181.273C36.2859 180.381 36.0239 179.388 35.8907 178.295ZM45.6406 175.668C45.5168 174.498 45.1041 173.58 44.4023 172.913C43.7168 172.226 42.8459 171.947 41.7897 172.075C41.1968 172.148 40.6833 172.332 40.2495 172.63C39.8318 172.906 39.4881 173.249 39.2183 173.658C38.9484 174.067 38.7502 174.524 38.6236 175.028C38.5156 175.53 38.4642 176.035 38.4696 176.542L45.6406 175.668ZM50.0267 176.572C49.8709 175.293 49.9208 174.159 50.1762 173.169C50.4294 172.16 50.8233 171.304 51.358 170.599C51.8927 169.895 52.5393 169.336 53.2977 168.924C54.056 168.512 54.8522 168.255 55.686 168.154C57.6316 167.916 59.1977 168.346 60.3844 169.443C61.5689 170.521 62.3124 172.301 62.6149 174.784C62.6285 174.895 62.6465 175.044 62.6691 175.229C62.6894 175.396 62.6994 175.554 62.6989 175.705L52.8041 176.91C53.0982 178.398 53.6725 179.484 54.527 180.17C55.3816 180.856 56.6149 181.1 58.227 180.904C59.1349 180.793 59.8856 180.626 60.479 180.404C61.0887 180.16 61.542 179.945 61.8389 179.758L62.4645 181.882C62.1698 182.088 61.6353 182.331 60.8611 182.614C60.1055 182.894 59.2273 183.095 58.2267 183.217C56.9667 183.37 55.8509 183.318 54.8793 183.061C53.9239 182.782 53.1091 182.345 52.4349 181.751C51.7606 181.156 51.22 180.423 50.8128 179.551C50.422 178.658 50.16 177.665 50.0267 176.572ZM59.7766 173.945C59.6529 172.776 59.2401 171.858 58.5383 171.191C57.8528 170.503 56.982 170.224 55.9258 170.353C55.3328 170.425 54.8194 170.61 54.3855 170.907C53.9679 171.184 53.6242 171.526 53.3543 171.935C53.0845 172.344 52.8863 172.801 52.7597 173.305C52.6516 173.807 52.6003 174.312 52.6057 174.819L59.7766 173.945ZM69.1788 167.299C69.7537 167.079 70.5127 166.826 71.456 166.542C72.4177 166.256 73.5379 166.035 74.8164 165.879C75.7429 165.766 76.5369 165.801 77.1985 165.983C77.8579 166.148 78.43 166.444 78.9149 166.874C79.0333 166.766 79.2214 166.611 79.479 166.411C79.7366 166.21 80.0602 166.011 80.4498 165.813C80.8371 165.596 81.2742 165.402 81.7609 165.23C82.2454 165.039 82.7749 164.909 83.3493 164.839C84.4611 164.704 85.3893 164.76 86.1341 165.007C86.8766 165.237 87.4785 165.624 87.9399 166.169C88.4198 166.713 88.7743 167.384 89.0034 168.184C89.251 168.981 89.4335 169.861 89.5509 170.825L90.5399 178.941L87.955 179.256L87.0337 171.696C86.9299 170.843 86.7944 170.117 86.6272 169.517C86.4786 168.914 86.259 168.424 85.9684 168.046C85.6964 167.665 85.3452 167.407 84.915 167.271C84.5011 167.115 83.9791 167.075 83.3491 167.152C82.4782 167.258 81.7702 167.467 81.2251 167.778C80.6963 168.068 80.3413 168.318 80.1601 168.528C80.367 168.992 80.5425 169.506 80.6867 170.071C80.8308 170.637 80.9412 171.235 81.018 171.865L82.007 179.981L79.4221 180.296L78.5009 172.735C78.397 171.883 78.2615 171.157 78.0943 170.557C77.9272 169.956 77.6983 169.467 77.4077 169.089C77.1357 168.708 76.7846 168.45 76.3543 168.315C75.9404 168.158 75.4277 168.117 74.8162 168.192C74.5568 168.223 74.28 168.267 73.9857 168.321C73.6915 168.376 73.4077 168.439 73.1343 168.51C72.8771 168.56 72.6396 168.617 72.4218 168.681C72.2039 168.745 72.0591 168.791 71.9872 168.819L73.4741 181.02L70.8892 181.335L69.1788 167.299ZM105.317 169.806C105.457 170.955 105.416 172.013 105.196 172.98C104.975 173.947 104.6 174.802 104.069 175.543C103.558 176.283 102.908 176.888 102.119 177.36C101.328 177.814 100.442 178.101 99.4594 178.221C98.4774 178.34 97.548 178.275 96.6712 178.024C95.7922 177.755 95.0064 177.325 94.3136 176.732C93.6394 176.137 93.079 175.397 92.6326 174.511C92.1862 173.625 91.8929 172.608 91.753 171.459C91.6152 170.329 91.6567 169.28 91.8773 168.313C92.0957 167.327 92.4607 166.465 92.9724 165.725C93.5025 164.984 94.1631 164.386 94.954 163.933C95.7427 163.46 96.6281 163.164 97.6101 163.045C98.5922 162.925 99.5227 163 100.402 163.269C101.278 163.519 102.054 163.942 102.728 164.537C103.421 165.129 103.992 165.878 104.44 166.782C104.887 167.668 105.179 168.676 105.317 169.806ZM102.621 170.135C102.422 168.504 101.894 167.262 101.038 166.407C100.198 165.531 99.1479 165.17 97.8879 165.324C96.6279 165.477 95.686 166.081 95.0622 167.135C94.4547 168.168 94.2503 169.5 94.449 171.131C94.6477 172.761 95.1671 174.014 96.0072 174.89C96.8635 175.744 97.9217 176.095 99.1817 175.941C100.442 175.788 101.375 175.195 101.983 174.161C102.607 173.108 102.819 171.765 102.621 170.135ZM111.982 161.35C112.205 161.323 112.457 161.311 112.74 161.314C113.038 161.296 113.33 161.298 113.615 161.32C113.897 161.323 114.153 161.339 114.382 161.368C114.627 161.375 114.808 161.391 114.924 161.414L114.753 163.72C114.54 163.671 114.188 163.629 113.694 163.595C113.218 163.54 112.609 163.558 111.868 163.649C111.386 163.707 110.911 163.822 110.443 163.991C109.991 164.141 109.693 164.243 109.549 164.298L111.029 176.444L108.444 176.759L106.758 162.917C107.342 162.62 108.077 162.324 108.962 162.028C109.845 161.714 110.852 161.488 111.982 161.35ZM116.093 168.521C115.937 167.243 115.987 166.108 116.242 165.118C116.495 164.11 116.889 163.253 117.424 162.548C117.959 161.844 118.605 161.286 119.364 160.873C120.122 160.461 120.918 160.205 121.752 160.103C123.698 159.866 125.264 160.296 126.45 161.392C127.635 162.47 128.378 164.25 128.681 166.733C128.694 166.845 128.713 166.993 128.735 167.178C128.755 167.345 128.765 167.504 128.765 167.654L118.87 168.86C119.164 170.347 119.738 171.434 120.593 172.119C121.448 172.805 122.681 173.05 124.293 172.853C125.201 172.743 125.952 172.576 126.545 172.353C127.155 172.11 127.608 171.894 127.905 171.708L128.53 173.832C128.236 174.037 127.701 174.281 126.927 174.563C126.171 174.843 125.293 175.044 124.293 175.166C123.033 175.32 121.917 175.268 120.945 175.01C119.99 174.731 119.175 174.295 118.501 173.7C117.827 173.105 117.286 172.372 116.879 171.5C116.488 170.607 116.226 169.615 116.093 168.521ZM125.843 165.895C125.719 164.725 125.306 163.807 124.604 163.14C123.919 162.453 123.048 162.173 121.992 162.302C121.399 162.374 120.885 162.559 120.451 162.856C120.034 163.133 119.69 163.476 119.42 163.885C119.15 164.294 118.952 164.75 118.826 165.255C118.718 165.757 118.666 166.261 118.672 166.768L125.843 165.895Z" fill="black"/>
</svg>
